<svg width="211" height="212" viewBox="0 0 211 212" fill="none" xmlns="http://www.w3.org/2000/svg">
<circle cx="105.5" cy="106.249" r="94.5" fill="#F1F1F1"/>
<path d="M211 106.249C211 164.515 163.766 211.749 105.5 211.749C47.234 211.749 0 164.515 0 106.249C0 47.9831 47.234 0.749146 105.5 0.749146C163.766 0.749146 211 47.9831 211 106.249ZM4.21491 106.249C4.21491 162.187 49.5618 207.534 105.5 207.534C161.438 207.534 206.785 162.187 206.785 106.249C206.785 50.3109 161.438 4.96406 105.5 4.96406C49.5618 4.96406 4.21491 50.3109 4.21491 106.249Z" fill="#7EB693"/>
<path d="M46.7812 138.749L46.667 125.9H48.5039L48.416 133.739C48.4102 134.003 48.4014 134.267 48.3896 134.53C48.3838 134.794 48.3721 135.072 48.3545 135.365C48.3369 135.652 48.3135 135.972 48.2842 136.323H48.3193C48.3779 136.095 48.4453 135.858 48.5215 135.611C48.6035 135.365 48.6943 135.105 48.7939 134.829C48.8994 134.554 49.0137 134.267 49.1367 133.968L52.4326 125.9H54.3574L48.8555 138.749H46.7812ZM55.9307 138.925C55.374 138.925 54.8936 138.808 54.4893 138.573C54.0908 138.333 53.7832 137.987 53.5664 137.536C53.3555 137.079 53.25 136.531 53.25 135.893C53.25 134.973 53.3496 134.091 53.5488 133.247C53.7539 132.403 54.0469 131.653 54.4277 130.997C54.8086 130.335 55.2686 129.814 55.8076 129.433C56.3467 129.046 56.9531 128.853 57.627 128.853C58.2773 128.853 58.7988 129.037 59.1914 129.406C59.584 129.77 59.7803 130.294 59.7803 130.98C59.7803 131.525 59.6748 132.014 59.4639 132.447C59.2588 132.881 58.957 133.247 58.5586 133.546C58.166 133.845 57.6885 134.073 57.126 134.232C56.5635 134.39 55.9248 134.469 55.21 134.469H55.0781C55.043 134.668 55.0137 134.873 54.9902 135.084C54.9668 135.289 54.9551 135.491 54.9551 135.691C54.9551 136.329 55.0693 136.792 55.2979 137.079C55.5322 137.36 55.8809 137.501 56.3438 137.501C56.6953 137.501 57.0176 137.457 57.3105 137.369C57.6094 137.276 57.9492 137.12 58.3301 136.903V138.292C57.9668 138.521 57.5859 138.682 57.1875 138.776C56.7891 138.875 56.3701 138.925 55.9307 138.925ZM55.3242 133.186H55.3857C56.0596 133.186 56.5986 133.098 57.0029 132.922C57.4131 132.74 57.709 132.494 57.8906 132.184C58.0723 131.867 58.1631 131.51 58.1631 131.111C58.1631 130.848 58.0986 130.64 57.9697 130.487C57.8467 130.335 57.6533 130.259 57.3896 130.259C57.1084 130.259 56.8359 130.382 56.5723 130.628C56.3086 130.868 56.0713 131.208 55.8604 131.648C55.6494 132.087 55.4707 132.6 55.3242 133.186ZM59.9736 138.749L62.0303 129.028H63.375L63.208 130.575H63.2783C63.4658 130.183 63.665 129.86 63.876 129.609C64.0869 129.351 64.3213 129.16 64.5791 129.037C64.8428 128.908 65.1357 128.844 65.458 128.844C65.5752 128.844 65.6895 128.856 65.8008 128.879C65.9121 128.897 66.0293 128.926 66.1523 128.967L65.6426 130.813C65.5371 130.772 65.4258 130.742 65.3086 130.725C65.1973 130.701 65.0742 130.69 64.9395 130.69C64.6406 130.69 64.3711 130.78 64.1309 130.962C63.8965 131.138 63.6885 131.372 63.5068 131.665C63.3311 131.958 63.1816 132.283 63.0586 132.641C62.9355 132.998 62.8359 133.356 62.7598 133.713L61.6963 138.749H59.9736ZM67.0664 143.073C66.0938 143.079 65.3555 142.889 64.8516 142.502C64.3418 142.121 64.0898 141.55 64.0957 140.788C64.1074 140.138 64.3154 139.561 64.7197 139.057C65.124 138.559 65.6807 138.178 66.3896 137.914C66.208 137.826 66.0557 137.683 65.9326 137.484C65.8154 137.278 65.7568 137.047 65.7568 136.789C65.7568 136.455 65.8682 136.136 66.0908 135.831C66.3193 135.526 66.6533 135.222 67.0928 134.917C66.8643 134.771 66.6797 134.53 66.5391 134.196C66.3984 133.862 66.3281 133.47 66.3281 133.019C66.3281 132.351 66.4717 131.694 66.7588 131.05C67.0518 130.4 67.4678 129.881 68.0068 129.494C68.2588 129.301 68.5459 129.149 68.8682 129.037C69.1904 128.92 69.5186 128.861 69.8525 128.861C70.1396 128.861 70.3799 128.888 70.5732 128.941C70.7725 128.987 70.9336 129.037 71.0566 129.09H73.4736L73.2539 130.153L72.085 130.426C72.1494 130.549 72.1963 130.693 72.2256 130.857C72.2549 131.021 72.2695 131.199 72.2695 131.393C72.2695 131.885 72.1758 132.401 71.9883 132.94C71.8008 133.479 71.5459 133.936 71.2236 134.311C70.9189 134.662 70.5586 134.938 70.1426 135.137C69.7324 135.33 69.2695 135.427 68.7539 135.427C68.5898 135.427 68.4551 135.43 68.3496 135.436C68.25 135.436 68.1768 135.447 68.1299 135.471C67.8311 135.606 67.6084 135.778 67.4619 135.989C67.3154 136.194 67.2422 136.388 67.2422 136.569C67.2422 136.757 67.3242 136.886 67.4883 136.956C67.5527 136.985 67.6318 137.006 67.7256 137.018C67.8193 137.029 67.9307 137.035 68.0596 137.035H69.4922C69.9609 137.035 70.3389 137.117 70.626 137.281C70.9189 137.445 71.1328 137.68 71.2676 137.984C71.4082 138.283 71.4785 138.635 71.4785 139.039C71.4785 139.754 71.3203 140.39 71.0039 140.946C70.6875 141.509 70.2627 141.96 69.7295 142.3C69.3604 142.546 68.9473 142.734 68.4902 142.862C68.0332 142.997 67.5586 143.068 67.0664 143.073ZM67.1279 141.746C67.4619 141.74 67.7812 141.688 68.0859 141.588C68.3906 141.494 68.6631 141.354 68.9033 141.166C69.1611 140.973 69.3691 140.727 69.5273 140.428C69.6914 140.135 69.7734 139.821 69.7734 139.487C69.7734 139.353 69.7559 139.23 69.7207 139.118C69.6855 139.007 69.6211 138.907 69.5273 138.819C69.4512 138.755 69.3369 138.705 69.1846 138.67C69.0381 138.629 68.8535 138.606 68.6309 138.6H67.4531C67.1895 138.6 66.9258 138.705 66.6621 138.916C66.3984 139.133 66.1787 139.4 66.0029 139.716C65.8271 140.032 65.7393 140.343 65.7393 140.648C65.7393 141.069 65.8594 141.359 66.0996 141.518C66.3457 141.676 66.6885 141.752 67.1279 141.746ZM68.7715 134.179C69.0762 134.179 69.3516 134.056 69.5977 133.81C69.8438 133.564 70.0488 133.233 70.2129 132.817C70.377 132.401 70.4795 131.941 70.5205 131.437C70.5498 131.161 70.5498 130.927 70.5205 130.734C70.4971 130.54 70.4385 130.391 70.3447 130.285C70.292 130.227 70.2275 130.183 70.1514 130.153C70.0752 130.118 69.9814 130.101 69.8701 130.101C69.624 130.101 69.3984 130.186 69.1934 130.356C68.9883 130.52 68.8066 130.739 68.6484 131.015C68.4902 131.284 68.3613 131.577 68.2617 131.894C68.168 132.21 68.1094 132.515 68.0859 132.808C68.0684 133.019 68.0625 133.209 68.0684 133.379C68.0801 133.543 68.1123 133.681 68.165 133.792C68.2764 134.05 68.4785 134.179 68.7715 134.179ZM75.8291 138.925C75.2725 138.925 74.792 138.808 74.3877 138.573C73.9893 138.333 73.6816 137.987 73.4648 137.536C73.2539 137.079 73.1484 136.531 73.1484 135.893C73.1484 134.973 73.248 134.091 73.4473 133.247C73.6523 132.403 73.9453 131.653 74.3262 130.997C74.707 130.335 75.167 129.814 75.7061 129.433C76.2451 129.046 76.8516 128.853 77.5254 128.853C78.1758 128.853 78.6973 129.037 79.0898 129.406C79.4824 129.77 79.6787 130.294 79.6787 130.98C79.6787 131.525 79.5732 132.014 79.3623 132.447C79.1572 132.881 78.8555 133.247 78.457 133.546C78.0645 133.845 77.5869 134.073 77.0244 134.232C76.4619 134.39 75.8232 134.469 75.1084 134.469H74.9766C74.9414 134.668 74.9121 134.873 74.8887 135.084C74.8652 135.289 74.8535 135.491 74.8535 135.691C74.8535 136.329 74.9678 136.792 75.1963 137.079C75.4307 137.36 75.7793 137.501 76.2422 137.501C76.5938 137.501 76.916 137.457 77.209 137.369C77.5078 137.276 77.8477 137.12 78.2285 136.903V138.292C77.8652 138.521 77.4844 138.682 77.0859 138.776C76.6875 138.875 76.2686 138.925 75.8291 138.925ZM75.2227 133.186H75.2842C75.958 133.186 76.4971 133.098 76.9014 132.922C77.3115 132.74 77.6074 132.494 77.7891 132.184C77.9707 131.867 78.0615 131.51 78.0615 131.111C78.0615 130.848 77.9971 130.64 77.8682 130.487C77.7451 130.335 77.5518 130.259 77.2881 130.259C77.0068 130.259 76.7344 130.382 76.4707 130.628C76.207 130.868 75.9697 131.208 75.7588 131.648C75.5479 132.087 75.3691 132.6 75.2227 133.186ZM79.8721 138.749L81.9287 129.028H83.2734L83.1064 130.575H83.1768C83.3643 130.183 83.5635 129.86 83.7744 129.609C83.9854 129.351 84.2197 129.16 84.4775 129.037C84.7412 128.908 85.0342 128.844 85.3564 128.844C85.4736 128.844 85.5879 128.856 85.6992 128.879C85.8105 128.897 85.9277 128.926 86.0508 128.967L85.541 130.813C85.4355 130.772 85.3242 130.742 85.207 130.725C85.0957 130.701 84.9727 130.69 84.8379 130.69C84.5391 130.69 84.2695 130.78 84.0293 130.962C83.7949 131.138 83.5869 131.372 83.4053 131.665C83.2295 131.958 83.0801 132.283 82.957 132.641C82.834 132.998 82.7344 133.356 82.6582 133.713L81.5947 138.749H79.8721ZM87.1846 138.925C86.71 138.925 86.291 138.881 85.9277 138.793C85.5703 138.705 85.2744 138.588 85.04 138.442V136.745C85.292 136.933 85.5996 137.091 85.9629 137.22C86.3262 137.343 86.666 137.404 86.9824 137.404C87.2754 137.404 87.5244 137.352 87.7295 137.246C87.9404 137.141 88.1016 136.985 88.2129 136.78C88.3301 136.575 88.3887 136.323 88.3887 136.025C88.3887 135.819 88.3623 135.632 88.3096 135.462C88.2568 135.292 88.1572 135.11 88.0107 134.917C87.8701 134.718 87.668 134.486 87.4043 134.223C87.123 133.947 86.8916 133.681 86.71 133.423C86.5342 133.165 86.4023 132.899 86.3145 132.623C86.2324 132.342 86.1914 132.037 86.1914 131.709C86.1914 131.176 86.3027 130.695 86.5254 130.268C86.748 129.834 87.0732 129.488 87.501 129.231C87.9287 128.973 88.4473 128.844 89.0566 128.844C89.5371 128.844 89.9824 128.908 90.3926 129.037C90.8027 129.166 91.1484 129.33 91.4297 129.529L90.709 130.883C90.4688 130.69 90.2051 130.543 89.918 130.443C89.6367 130.344 89.373 130.294 89.127 130.294C88.7695 130.294 88.4854 130.4 88.2744 130.61C88.0635 130.821 87.958 131.106 87.958 131.463C87.958 131.656 87.9814 131.835 88.0283 131.999C88.0752 132.157 88.1631 132.324 88.292 132.5C88.4268 132.676 88.6172 132.881 88.8633 133.115C89.168 133.42 89.4199 133.701 89.6191 133.959C89.8184 134.211 89.9648 134.484 90.0586 134.776C90.1582 135.069 90.208 135.427 90.208 135.849C90.208 136.446 90.0879 136.977 89.8477 137.44C89.6133 137.902 89.2705 138.266 88.8193 138.529C88.374 138.793 87.8291 138.925 87.1846 138.925ZM94.251 138.749L96.9668 125.9H99.5947C100.134 125.9 100.623 125.99 101.062 126.172C101.502 126.354 101.854 126.632 102.117 127.007C102.381 127.382 102.513 127.865 102.513 128.457C102.513 128.984 102.428 129.491 102.258 129.978C102.088 130.458 101.824 130.877 101.467 131.234C101.109 131.586 100.652 131.841 100.096 131.999V132.061C100.541 132.201 100.884 132.485 101.124 132.913C101.364 133.335 101.484 133.833 101.484 134.407C101.484 135.187 101.326 135.907 101.01 136.569C100.699 137.226 100.236 137.753 99.6211 138.151C99.0117 138.55 98.2529 138.749 97.3447 138.749H94.251ZM96.3779 137.193H97.3535C97.8809 137.193 98.3115 137.062 98.6455 136.798C98.9854 136.534 99.2344 136.186 99.3926 135.752C99.5508 135.318 99.6299 134.847 99.6299 134.337C99.6299 133.821 99.5068 133.438 99.2607 133.186C99.0205 132.928 98.6836 132.799 98.25 132.799H97.3008L96.3779 137.193ZM97.6172 131.305H98.5137C98.9648 131.305 99.3457 131.185 99.6562 130.944C99.9668 130.698 100.204 130.379 100.368 129.986C100.532 129.594 100.614 129.178 100.614 128.738C100.614 128.305 100.503 127.98 100.28 127.763C100.058 127.54 99.7148 127.429 99.252 127.429H98.4434L97.6172 131.305ZM102.319 138.749L104.385 129.028H106.099L104.042 138.749H102.319ZM105.615 127.552C105.34 127.552 105.132 127.484 104.991 127.35C104.851 127.215 104.78 127.019 104.78 126.761C104.78 126.532 104.824 126.31 104.912 126.093C105 125.87 105.132 125.689 105.308 125.548C105.489 125.401 105.715 125.328 105.984 125.328C106.254 125.328 106.459 125.39 106.6 125.513C106.74 125.636 106.811 125.829 106.811 126.093C106.811 126.491 106.702 126.834 106.485 127.121C106.269 127.408 105.979 127.552 105.615 127.552ZM108.99 138.925C108.469 138.925 108.021 138.808 107.646 138.573C107.276 138.339 106.992 137.996 106.793 137.545C106.6 137.088 106.503 136.537 106.503 135.893C106.503 135.395 106.55 134.838 106.644 134.223C106.743 133.602 106.896 132.978 107.101 132.351C107.306 131.718 107.575 131.138 107.909 130.61C108.249 130.083 108.659 129.658 109.14 129.336C109.62 129.008 110.177 128.844 110.81 128.844C111.331 128.844 111.773 128.967 112.137 129.213C112.506 129.453 112.787 129.802 112.98 130.259C113.18 130.71 113.279 131.261 113.279 131.911C113.279 132.491 113.227 133.104 113.121 133.748C113.016 134.393 112.852 135.023 112.629 135.638C112.412 136.247 112.134 136.801 111.794 137.299C111.454 137.791 111.05 138.187 110.581 138.485C110.118 138.778 109.588 138.925 108.99 138.925ZM109.184 137.44C109.482 137.44 109.755 137.317 110.001 137.07C110.247 136.818 110.464 136.487 110.651 136.077C110.839 135.667 110.997 135.216 111.126 134.724C111.261 134.226 111.36 133.731 111.425 133.238C111.495 132.746 111.53 132.295 111.53 131.885C111.53 131.557 111.495 131.276 111.425 131.041C111.36 130.807 111.258 130.631 111.117 130.514C110.977 130.391 110.801 130.329 110.59 130.329C110.273 130.329 109.989 130.464 109.737 130.734C109.485 130.997 109.266 131.346 109.078 131.779C108.891 132.207 108.735 132.673 108.612 133.177C108.489 133.675 108.396 134.167 108.331 134.653C108.272 135.134 108.243 135.553 108.243 135.91C108.243 136.402 108.322 136.78 108.48 137.044C108.639 137.308 108.873 137.44 109.184 137.44ZM113.64 138.749L116.549 125.073H118.271L115.362 138.749H113.64ZM120.275 138.925C119.754 138.925 119.306 138.808 118.931 138.573C118.562 138.339 118.277 137.996 118.078 137.545C117.885 137.088 117.788 136.537 117.788 135.893C117.788 135.395 117.835 134.838 117.929 134.223C118.028 133.602 118.181 132.978 118.386 132.351C118.591 131.718 118.86 131.138 119.194 130.61C119.534 130.083 119.944 129.658 120.425 129.336C120.905 129.008 121.462 128.844 122.095 128.844C122.616 128.844 123.059 128.967 123.422 129.213C123.791 129.453 124.072 129.802 124.266 130.259C124.465 130.71 124.564 131.261 124.564 131.911C124.564 132.491 124.512 133.104 124.406 133.748C124.301 134.393 124.137 135.023 123.914 135.638C123.697 136.247 123.419 136.801 123.079 137.299C122.739 137.791 122.335 138.187 121.866 138.485C121.403 138.778 120.873 138.925 120.275 138.925ZM120.469 137.44C120.768 137.44 121.04 137.317 121.286 137.07C121.532 136.818 121.749 136.487 121.937 136.077C122.124 135.667 122.282 135.216 122.411 134.724C122.546 134.226 122.646 133.731 122.71 133.238C122.78 132.746 122.815 132.295 122.815 131.885C122.815 131.557 122.78 131.276 122.71 131.041C122.646 130.807 122.543 130.631 122.402 130.514C122.262 130.391 122.086 130.329 121.875 130.329C121.559 130.329 121.274 130.464 121.022 130.734C120.771 130.997 120.551 131.346 120.363 131.779C120.176 132.207 120.021 132.673 119.897 133.177C119.774 133.675 119.681 134.167 119.616 134.653C119.558 135.134 119.528 135.553 119.528 135.91C119.528 136.402 119.607 136.78 119.766 137.044C119.924 137.308 120.158 137.44 120.469 137.44ZM126.744 143.073C125.771 143.079 125.033 142.889 124.529 142.502C124.02 142.121 123.768 141.55 123.773 140.788C123.785 140.138 123.993 139.561 124.397 139.057C124.802 138.559 125.358 138.178 126.067 137.914C125.886 137.826 125.733 137.683 125.61 137.484C125.493 137.278 125.435 137.047 125.435 136.789C125.435 136.455 125.546 136.136 125.769 135.831C125.997 135.526 126.331 135.222 126.771 134.917C126.542 134.771 126.357 134.53 126.217 134.196C126.076 133.862 126.006 133.47 126.006 133.019C126.006 132.351 126.149 131.694 126.437 131.05C126.729 130.4 127.146 129.881 127.685 129.494C127.937 129.301 128.224 129.149 128.546 129.037C128.868 128.92 129.196 128.861 129.53 128.861C129.817 128.861 130.058 128.888 130.251 128.941C130.45 128.987 130.611 129.037 130.734 129.09H133.151L132.932 130.153L131.763 130.426C131.827 130.549 131.874 130.693 131.903 130.857C131.933 131.021 131.947 131.199 131.947 131.393C131.947 131.885 131.854 132.401 131.666 132.94C131.479 133.479 131.224 133.936 130.901 134.311C130.597 134.662 130.236 134.938 129.82 135.137C129.41 135.33 128.947 135.427 128.432 135.427C128.268 135.427 128.133 135.43 128.027 135.436C127.928 135.436 127.854 135.447 127.808 135.471C127.509 135.606 127.286 135.778 127.14 135.989C126.993 136.194 126.92 136.388 126.92 136.569C126.92 136.757 127.002 136.886 127.166 136.956C127.23 136.985 127.31 137.006 127.403 137.018C127.497 137.029 127.608 137.035 127.737 137.035H129.17C129.639 137.035 130.017 137.117 130.304 137.281C130.597 137.445 130.811 137.68 130.945 137.984C131.086 138.283 131.156 138.635 131.156 139.039C131.156 139.754 130.998 140.39 130.682 140.946C130.365 141.509 129.94 141.96 129.407 142.3C129.038 142.546 128.625 142.734 128.168 142.862C127.711 142.997 127.236 143.068 126.744 143.073ZM126.806 141.746C127.14 141.74 127.459 141.688 127.764 141.588C128.068 141.494 128.341 141.354 128.581 141.166C128.839 140.973 129.047 140.727 129.205 140.428C129.369 140.135 129.451 139.821 129.451 139.487C129.451 139.353 129.434 139.23 129.398 139.118C129.363 139.007 129.299 138.907 129.205 138.819C129.129 138.755 129.015 138.705 128.862 138.67C128.716 138.629 128.531 138.606 128.309 138.6H127.131C126.867 138.6 126.604 138.705 126.34 138.916C126.076 139.133 125.856 139.4 125.681 139.716C125.505 140.032 125.417 140.343 125.417 140.648C125.417 141.069 125.537 141.359 125.777 141.518C126.023 141.676 126.366 141.752 126.806 141.746ZM128.449 134.179C128.754 134.179 129.029 134.056 129.275 133.81C129.521 133.564 129.727 133.233 129.891 132.817C130.055 132.401 130.157 131.941 130.198 131.437C130.228 131.161 130.228 130.927 130.198 130.734C130.175 130.54 130.116 130.391 130.022 130.285C129.97 130.227 129.905 130.183 129.829 130.153C129.753 130.118 129.659 130.101 129.548 130.101C129.302 130.101 129.076 130.186 128.871 130.356C128.666 130.52 128.484 130.739 128.326 131.015C128.168 131.284 128.039 131.577 127.939 131.894C127.846 132.21 127.787 132.515 127.764 132.808C127.746 133.019 127.74 133.209 127.746 133.379C127.758 133.543 127.79 133.681 127.843 133.792C127.954 134.05 128.156 134.179 128.449 134.179ZM132.36 138.749L134.426 129.028H136.14L134.083 138.749H132.36ZM135.656 127.552C135.381 127.552 135.173 127.484 135.032 127.35C134.892 127.215 134.821 127.019 134.821 126.761C134.821 126.532 134.865 126.31 134.953 126.093C135.041 125.87 135.173 125.689 135.349 125.548C135.53 125.401 135.756 125.328 136.025 125.328C136.295 125.328 136.5 125.39 136.641 125.513C136.781 125.636 136.852 125.829 136.852 126.093C136.852 126.491 136.743 126.834 136.526 127.121C136.31 127.408 136.02 127.552 135.656 127.552ZM139.312 143.038L140.183 138.969C140.206 138.858 140.235 138.729 140.271 138.582C140.312 138.43 140.355 138.269 140.402 138.099C140.449 137.929 140.499 137.756 140.552 137.58H140.508C140.303 137.879 140.089 138.128 139.866 138.327C139.649 138.526 139.418 138.676 139.172 138.776C138.932 138.875 138.668 138.925 138.381 138.925C137.994 138.925 137.66 138.822 137.379 138.617C137.098 138.412 136.881 138.11 136.729 137.712C136.582 137.308 136.509 136.816 136.509 136.235C136.509 135.714 136.559 135.128 136.658 134.478C136.758 133.827 136.907 133.174 137.106 132.518C137.312 131.856 137.569 131.249 137.88 130.698C138.196 130.142 138.565 129.693 138.987 129.354C139.409 129.014 139.893 128.844 140.438 128.844C140.754 128.844 141.021 128.9 141.237 129.011C141.454 129.116 141.633 129.275 141.773 129.485C141.914 129.696 142.022 129.957 142.099 130.268H142.134L142.521 129.028H144.015L141.035 143.038H139.312ZM139.11 137.413C139.38 137.413 139.626 137.317 139.849 137.123C140.077 136.924 140.282 136.66 140.464 136.332C140.646 135.998 140.804 135.629 140.938 135.225C141.079 134.815 141.196 134.393 141.29 133.959C141.384 133.52 141.454 133.101 141.501 132.702C141.548 132.298 141.571 131.941 141.571 131.63C141.571 131.226 141.492 130.915 141.334 130.698C141.182 130.476 140.956 130.364 140.657 130.364C140.364 130.364 140.095 130.496 139.849 130.76C139.603 131.018 139.383 131.358 139.189 131.779C138.996 132.195 138.832 132.655 138.697 133.159C138.568 133.657 138.469 134.152 138.398 134.645C138.334 135.137 138.302 135.579 138.302 135.972C138.302 136.47 138.366 136.836 138.495 137.07C138.63 137.299 138.835 137.413 139.11 137.413ZM146.247 138.925C145.854 138.925 145.521 138.849 145.245 138.696C144.976 138.538 144.771 138.313 144.63 138.02C144.489 137.727 144.419 137.372 144.419 136.956C144.419 136.739 144.439 136.487 144.48 136.2C144.521 135.913 144.568 135.638 144.621 135.374L145.983 129.028H147.697L146.432 135.031C146.367 135.301 146.314 135.565 146.273 135.822C146.238 136.08 146.221 136.318 146.221 136.534C146.221 136.792 146.276 136.997 146.388 137.15C146.505 137.296 146.681 137.369 146.915 137.369C147.243 137.369 147.53 137.243 147.776 136.991C148.022 136.734 148.239 136.367 148.427 135.893C148.614 135.418 148.775 134.853 148.91 134.196L150.018 129.028H151.731L149.684 138.749H148.304L148.4 137.536H148.348C148.166 137.823 147.964 138.072 147.741 138.283C147.524 138.488 147.29 138.647 147.038 138.758C146.786 138.869 146.522 138.925 146.247 138.925ZM154.825 138.925C154.269 138.925 153.788 138.808 153.384 138.573C152.985 138.333 152.678 137.987 152.461 137.536C152.25 137.079 152.145 136.531 152.145 135.893C152.145 134.973 152.244 134.091 152.443 133.247C152.648 132.403 152.941 131.653 153.322 130.997C153.703 130.335 154.163 129.814 154.702 129.433C155.241 129.046 155.848 128.853 156.521 128.853C157.172 128.853 157.693 129.037 158.086 129.406C158.479 129.77 158.675 130.294 158.675 130.98C158.675 131.525 158.569 132.014 158.358 132.447C158.153 132.881 157.852 133.247 157.453 133.546C157.061 133.845 156.583 134.073 156.021 134.232C155.458 134.39 154.819 134.469 154.104 134.469H153.973C153.938 134.668 153.908 134.873 153.885 135.084C153.861 135.289 153.85 135.491 153.85 135.691C153.85 136.329 153.964 136.792 154.192 137.079C154.427 137.36 154.775 137.501 155.238 137.501C155.59 137.501 155.912 137.457 156.205 137.369C156.504 137.276 156.844 137.12 157.225 136.903V138.292C156.861 138.521 156.48 138.682 156.082 138.776C155.684 138.875 155.265 138.925 154.825 138.925ZM154.219 133.186H154.28C154.954 133.186 155.493 133.098 155.897 132.922C156.308 132.74 156.604 132.494 156.785 132.184C156.967 131.867 157.058 131.51 157.058 131.111C157.058 130.848 156.993 130.64 156.864 130.487C156.741 130.335 156.548 130.259 156.284 130.259C156.003 130.259 155.73 130.382 155.467 130.628C155.203 130.868 154.966 131.208 154.755 131.648C154.544 132.087 154.365 132.6 154.219 133.186ZM160.907 138.925C160.433 138.925 160.014 138.881 159.65 138.793C159.293 138.705 158.997 138.588 158.763 138.442V136.745C159.015 136.933 159.322 137.091 159.686 137.22C160.049 137.343 160.389 137.404 160.705 137.404C160.998 137.404 161.247 137.352 161.452 137.246C161.663 137.141 161.824 136.985 161.936 136.78C162.053 136.575 162.111 136.323 162.111 136.025C162.111 135.819 162.085 135.632 162.032 135.462C161.979 135.292 161.88 135.11 161.733 134.917C161.593 134.718 161.391 134.486 161.127 134.223C160.846 133.947 160.614 133.681 160.433 133.423C160.257 133.165 160.125 132.899 160.037 132.623C159.955 132.342 159.914 132.037 159.914 131.709C159.914 131.176 160.025 130.695 160.248 130.268C160.471 129.834 160.796 129.488 161.224 129.231C161.651 128.973 162.17 128.844 162.779 128.844C163.26 128.844 163.705 128.908 164.115 129.037C164.525 129.166 164.871 129.33 165.152 129.529L164.432 130.883C164.191 130.69 163.928 130.543 163.641 130.443C163.359 130.344 163.096 130.294 162.85 130.294C162.492 130.294 162.208 130.4 161.997 130.61C161.786 130.821 161.681 131.106 161.681 131.463C161.681 131.656 161.704 131.835 161.751 131.999C161.798 132.157 161.886 132.324 162.015 132.5C162.149 132.676 162.34 132.881 162.586 133.115C162.891 133.42 163.143 133.701 163.342 133.959C163.541 134.211 163.688 134.484 163.781 134.776C163.881 135.069 163.931 135.427 163.931 135.849C163.931 136.446 163.811 136.977 163.57 137.44C163.336 137.902 162.993 138.266 162.542 138.529C162.097 138.793 161.552 138.925 160.907 138.925Z" fill="#274C5B"/>
<path d="M57.8809 90.7286H61.7627C62.8695 90.7286 63.7809 90.5333 64.4971 90.1427C65.2295 89.7521 65.7666 89.1987 66.1084 88.4825C66.4665 87.7664 66.6455 86.9282 66.6455 85.9679C66.6455 85.1378 66.4827 84.3973 66.1572 83.7462C65.8317 83.0952 65.3353 82.5825 64.668 82.2081C64.0169 81.8175 63.1706 81.6222 62.1289 81.6222C61.3802 81.6222 60.6641 81.7768 59.9805 82.0861C59.3132 82.379 58.7679 82.8103 58.3447 83.38C57.9215 83.9334 57.71 84.6007 57.71 85.382H50.0684C50.0684 83.3963 50.6055 81.6792 51.6797 80.2306C52.7702 78.782 54.2106 77.6671 56.001 76.8859C57.8076 76.0883 59.777 75.6896 61.9092 75.6896C64.3669 75.6896 66.5234 76.0802 68.3789 76.8615C70.2507 77.6264 71.6992 78.7657 72.7246 80.2794C73.7663 81.7768 74.2871 83.6323 74.2871 85.8458C74.2871 87.0014 74.0104 88.1163 73.457 89.1906C72.9199 90.2485 72.1468 91.1925 71.1377 92.0226C70.1449 92.8364 68.9567 93.4874 67.5732 93.9757C66.2061 94.4477 64.6842 94.6837 63.0078 94.6837H57.8809V90.7286ZM57.8809 96.4659V92.5841H63.0078C64.8633 92.5841 66.5234 92.7957 67.9883 93.2189C69.4531 93.642 70.6982 94.2524 71.7236 95.0499C72.749 95.8475 73.5303 96.8159 74.0674 97.9552C74.6045 99.0945 74.873 100.364 74.873 101.764C74.873 103.424 74.5475 104.905 73.8965 106.207C73.2454 107.509 72.334 108.608 71.1621 109.503C69.9902 110.398 68.6149 111.082 67.0361 111.554C65.4574 112.01 63.7484 112.237 61.9092 112.237C60.4281 112.237 58.9551 112.034 57.4902 111.627C56.0254 111.22 54.6989 110.602 53.5107 109.772C52.3226 108.925 51.3704 107.859 50.6543 106.573C49.9382 105.271 49.5801 103.725 49.5801 101.935H57.2217C57.2217 102.765 57.4333 103.513 57.8564 104.181C58.2959 104.832 58.89 105.353 59.6387 105.743C60.4036 106.118 61.2337 106.305 62.1289 106.305C63.2031 106.305 64.1146 106.109 64.8633 105.719C65.6283 105.312 66.2061 104.759 66.5967 104.059C67.0036 103.359 67.207 102.553 67.207 101.642C67.207 100.405 66.9873 99.4119 66.5479 98.6632C66.1247 97.8982 65.5062 97.3448 64.6924 97.0031C63.8786 96.645 62.902 96.4659 61.7627 96.4659H57.8809ZM86.2012 95.7335L80.1465 94.2931L82.2217 76.2023H102.583V82.2325H88.4717L87.6172 89.7277C88.0566 89.4672 88.7484 89.1824 89.6924 88.8732C90.6364 88.5476 91.6943 88.3849 92.8662 88.3849C94.6077 88.3849 96.154 88.6534 97.5049 89.1906C98.8558 89.7277 99.9951 90.5089 100.923 91.5343C101.867 92.5434 102.575 93.7885 103.047 95.2697C103.535 96.7508 103.779 98.4353 103.779 100.323C103.779 101.886 103.535 103.383 103.047 104.816C102.559 106.232 101.81 107.501 100.801 108.624C99.8079 109.731 98.5465 110.61 97.0166 111.261C95.4867 111.912 93.6882 112.237 91.6211 112.237C90.0586 112.237 88.5449 112.001 87.0801 111.529C85.6152 111.057 84.2969 110.374 83.125 109.479C81.9694 108.567 81.0498 107.46 80.3662 106.158C79.6989 104.856 79.3571 103.391 79.3408 101.764H86.958C87.0394 102.708 87.2754 103.522 87.666 104.205C88.0566 104.873 88.5856 105.393 89.2529 105.768C89.9202 106.126 90.6934 106.305 91.5723 106.305C92.4186 106.305 93.1348 106.142 93.7207 105.817C94.3066 105.475 94.7705 105.011 95.1123 104.425C95.4704 103.839 95.7308 103.155 95.8936 102.374C96.0563 101.593 96.1377 100.755 96.1377 99.8595C96.1377 98.9318 96.0319 98.1017 95.8203 97.3693C95.6087 96.6206 95.2832 95.9858 94.8438 95.465C94.4043 94.9279 93.8428 94.521 93.1592 94.2443C92.4919 93.9513 91.6862 93.8048 90.7422 93.8048C89.5052 93.8048 88.5368 94.0083 87.8369 94.4152C87.137 94.8221 86.5918 95.2615 86.2012 95.7335ZM132.539 90.8019V97.1251C132.539 99.7293 132.246 101.984 131.66 103.888C131.09 105.792 130.26 107.363 129.17 108.6C128.096 109.837 126.81 110.756 125.312 111.359C123.831 111.944 122.188 112.237 120.381 112.237C118.932 112.237 117.581 112.05 116.328 111.676C115.075 111.302 113.944 110.724 112.935 109.943C111.942 109.145 111.087 108.152 110.371 106.964C109.655 105.776 109.102 104.36 108.711 102.716C108.337 101.072 108.149 99.2085 108.149 97.1251V90.8019C108.149 88.1652 108.434 85.9028 109.004 84.0148C109.59 82.1267 110.428 80.5642 111.519 79.3273C112.609 78.0903 113.895 77.1788 115.376 76.5929C116.873 76.007 118.525 75.714 120.332 75.714C121.781 75.714 123.123 75.9012 124.36 76.2755C125.614 76.6499 126.745 77.2277 127.754 78.0089C128.763 78.7902 129.618 79.7749 130.317 80.963C131.034 82.1512 131.579 83.5672 131.953 85.2111C132.344 86.8387 132.539 88.7023 132.539 90.8019ZM124.922 98.0773V89.8009C124.922 88.5802 124.849 87.5223 124.702 86.6271C124.572 85.7156 124.377 84.9425 124.116 84.3077C123.872 83.673 123.563 83.1603 123.188 82.7697C122.814 82.379 122.383 82.0942 121.895 81.9152C121.423 81.7198 120.902 81.6222 120.332 81.6222C119.616 81.6222 118.973 81.7687 118.403 82.0616C117.834 82.3546 117.354 82.8185 116.963 83.4532C116.572 84.0717 116.271 84.91 116.06 85.9679C115.864 87.0096 115.767 88.2872 115.767 89.8009V98.0773C115.767 99.298 115.832 100.364 115.962 101.276C116.108 102.187 116.304 102.968 116.548 103.619C116.808 104.254 117.126 104.775 117.5 105.182C117.874 105.572 118.306 105.857 118.794 106.036C119.282 106.215 119.811 106.305 120.381 106.305C121.097 106.305 121.732 106.166 122.285 105.89C122.839 105.597 123.311 105.133 123.701 104.498C124.108 103.847 124.409 102.993 124.604 101.935C124.816 100.877 124.922 99.5909 124.922 98.0773ZM160.371 91.754V98.3702H136.006V91.754H160.371ZM151.826 82.3058V108.185H144.648V82.3058H151.826Z" fill="#274C5B"/>
</svg>
